<?xml version="1.0" encoding="utf-8"?>
<!-- Generator: Adobe Illustrator 24.3.0, SVG Export Plug-In . SVG Version: 6.00 Build 0)  -->
<svg version="1.1" id="Layer_1" xmlns="http://www.w3.org/2000/svg" xmlns:xlink="http://www.w3.org/1999/xlink" x="0px" y="0px"
	 viewBox="0 0 1920 1080" style="enable-background:new 0 0 1920 1080;" xml:space="preserve">
<path d="M972.1,383c49.9,0,99.5,0,149.4,0c0,12.6,0,25,0,38c-31.4,0-63,0-94.7,0c0,13.7,0,26.8,0,40.5c29,0,58.1,0,87.3,0
	c0,13,0,25.4,0,38.3c-29.2,0-58.1,0-87.3,0c0,14,0,27.6,0,41.6c31.6,0,63,0,94.7,0c0,12.8,0,25.2,0,37.9c-49.7,0-99.4,0-149.4,0
	C972.1,514,972.1,448.8,972.1,383z"/>
<path d="M791.7,579.4c0-65.6,0-130.8,0-196.4c49.9,0,99.6,0,149.6,0c0,12.7,0,25.1,0,38.1c-31.7,0-63.3,0-95.1,0
	c0,13.7,0,26.7,0,40.3c29,0,57.9,0,87.2,0c0,13,0,25.5,0,38.5c-29,0-57.9,0-87.1,0c0,14,0,27.6,0,41.6c31.7,0,63.3,0,95.1,0
	c0,12.9,0,25.3,0,38C891.5,579.4,841.9,579.4,791.7,579.4z"/>
<path d="M1302.1,579.5c-49.7,0-99.3,0-149.3,0c0-65.5,0-130.8,0-196.4c49.7,0,99.3,0,149.3,0c0,12.4,0,24.8,0,37.8
	c-31.4,0-62.9,0-94.8,0c0,13.8,0,27,0,40.6c29,0,57.9,0,87.2,0c0,12.8,0,25.2,0,38.2c-28.9,0-57.9,0-87.2,0c0,14.2,0,27.7,0,41.6
	c31.6,0,63.1,0,94.9,0C1302.1,554.1,1302.1,566.5,1302.1,579.5z"/>
<path d="M1309.2,324.9c28.1,15.5,53.7,34.2,73.8,59.5c22.9,28.7,30.9,62.1,29.5,98.2c-1.3,34.2-14.6,63.8-34.7,90.8
	c-7,9.3-14,18.7-20.4,28.4c-20.3,30.8-26.8,64.4-20.1,100.6c1.4,7.5,2.8,15,3.2,23c-4.3-9.4-9.2-18.6-12.7-28.4
	c-11.7-32-11.3-63.7,2.3-95.3c12.4-28.7,24.8-57.4,35.8-86.6c9.1-24,13.5-49.2,9.9-75c-3.8-28-15.5-53-32.7-75.1
	c-10.7-13.8-23-26.2-34.6-39.3C1308.8,325.4,1309,325.1,1309.2,324.9z"/>
<path d="M762.6,579.5c-18,0-35.8,0-53.9,0c0-65.4,0-130.7,0-196.4c17.9,0,35.8,0,53.9,0C762.6,448.5,762.6,513.7,762.6,579.5z"/>
<path d="M542.9,609.8c-3.2-2.1-6.4-3.2-7.8-5.4c-23.7-35.5-52.9-65.9-85.6-93.1c-10.2-8.5-21-16.4-31.7-24.3
	c-9-6.7-9.3-11.3,0.1-17.9c36.8-25.5,68.9-56.1,97.3-90.6c6.6-8,12.7-16.3,19-24.4c6-7.7,11.6-7.5,17.4,0.6
	c30.8,43.2,67.6,80.5,110.9,111.3c2.3,1.6,4.8,3,7.1,4.6c6.3,4.3,6.4,11.4,0.1,15.6c-47.1,31.5-86.1,71.1-119.4,116.7
	C548.6,605.5,545.8,607.2,542.9,609.8z M543.5,380.9c-4,1.8-7.7,2.9-10.6,5.1c-21.8,15.3-41,33.5-59,52.9
	c-8.1,8.8-15.8,18.1-23,27.6c-7.4,9.8-7.1,14.3,0.1,24.2c21.2,29.3,47.4,53.5,75.5,75.9c3.2,2.6,7,4.5,10.5,6.8
	c4,2.6,8.2,2.7,12.4,0.6c2.7-1.3,5.3-2.9,7.7-4.6c22.5-16.3,42.4-35.5,60.7-56.3c7-8,13.2-16.7,19.5-25.2c4.8-6.5,3.8-12.9-0.8-19.3
	c-22-30.9-48.3-57.6-78.5-80.5C553.8,385,548.6,383.4,543.5,380.9z"/>
<path d="M706.9,607.7c198.6,0,397,0,595.5,0c0,2.1,0,4.1,0,6.4c-198.4,0-396.9,0-595.5,0C706.9,612,706.9,610.1,706.9,607.7z"/>
<path d="M1358.8,636.1c6.8,0,13.1,0,19.7,0c0.1,1.7,0.2,3.4,0.2,5c0,21.7,0,43.3,0,65c0,2.2-0.3,4.4,0.2,6.5
	c0.4,1.5,1.8,2.6,2.8,3.9c0.8-1.2,2.2-2.4,2.4-3.8c0.4-2.9,0.4-6,0.4-9c0-20.7,0-41.3,0-62c0-1.8,0-3.6,0-5.6c6.7,0,13,0,19.2,0
	c0.3,0.4,0.6,0.7,0.6,0.9c-0.1,24.5,0.2,49-0.4,73.4c-0.4,16.1-11.8,24.6-27.3,21.5c-9.8-1.9-16.6-9.1-17.1-19.4
	c-0.6-12-0.6-24-0.7-36C1358.7,663.3,1358.8,649.9,1358.8,636.1z"/>
<path d="M1459,676.8c-7.1,0-13.4,0-20.3,0c0-7.3,0.2-14.4-0.1-21.5c-0.1-1.8-1.8-4.9-3.1-5.1c-3.3-0.5-3.7,2.5-3.8,5.1
	c0,18.7-0.1,37.3,0.2,56c0,1.7,2.1,3.4,3.3,5.1c1.2-1.7,3.2-3.3,3.4-5.1c0.4-6,0.2-12,0.2-18.3c6.7,0,13.1,0,20.7,0
	c-0.9,8.5-1,17-2.9,25.1c-2.3,9.5-12,14.9-23.1,14.3c-10.9-0.6-17.7-6-20-16.1c-0.7-2.9-1.2-5.9-1.2-8.9c-0.1-17-0.4-34,0.1-51
	c0.3-9.6,4.6-17.4,14.2-21c15.5-5.8,29.9,3,31.6,19.4C1458.6,662,1458.6,669.2,1459,676.8z"/>
<path d="M1542.3,692.8c6.9,0,12.9,0,19.8,0c-0.5,8.1-0.2,16.1-1.6,23.8c-1.7,9.9-11.3,16.1-22.5,15.8c-11.6-0.3-19.4-6-21.1-16.6
	c-1.1-6.9-1.3-13.9-1.3-20.9c-0.1-12.8-0.3-25.7,0.2-38.5c0.7-16.2,13.7-25.5,29.5-21.8c9.7,2.3,15.7,9.9,16.4,20.7
	c0.1,2.3,0.1,4.7,0.1,7c0,4.7,0,9.3,0,14.3c-6.4,0-12.6,0-19.4,0c0-7.3,0.2-14.4-0.2-21.6c-0.1-1.8-2.1-3.4-3.3-5.1
	c-1.2,1.7-3.3,3.4-3.4,5.1c-0.2,18.8-0.2,37.6-0.1,56.5c0,2.3,0.3,5.3,3.5,4.7c1.4-0.3,3.1-2.9,3.2-4.6
	C1542.5,705.5,1542.3,699.4,1542.3,692.8z"/>
<path d="M1465.3,696.8c5.9,0,11.5,0,18,0c0,4.8-0.1,9.6,0,14.3c0.1,2.5,0.2,5.8,3.7,5.1c1.6-0.3,3.4-3.4,3.7-5.4
	c1.1-7.6-0.7-14.1-7.5-18.7c-2.8-1.8-5.2-4.2-7.7-6.4c-10.9-9.4-14.9-28.5-8.7-41.5c4-8.3,14.9-12.3,26.1-9.5
	c9.1,2.2,13.7,7.2,14.7,16.6c0.4,4.1,0.1,8.3,0.1,13.2c-2.7,0-5.6,0-8.5,0c-3,0-5.9,0-9.6,0c0-3.7,0.3-7.2-0.1-10.6
	c-0.2-1.4-1.9-2.6-2.9-3.9c-1.2,1.2-3.2,2.3-3.4,3.7c-1,5.9-0.5,11.5,5.1,15.6c4.3,3.1,8.3,6.6,12.3,10.1c5.1,4.5,8.2,10.1,8.5,16.9
	c0.3,6.8,0.3,13.6-0.2,20.4c-0.5,6.6-4.6,10.9-10.4,13.6c-15.7,7.2-31-1.1-33-18.1C1464.8,707.3,1465.3,702.3,1465.3,696.8z"/>
<path d="M1211.9,688.9c5.3-1.7,8,0.4,10.1,5.1c3.2,7.2,7.2,14.1,11.3,21c-0.5-8.8,1.3-17.8-0.9-26.4c1.3,0,3.8,0,5.7,0
	c-0.5,2.6-1.4,5.3-1.4,8c-0.2,9.8-0.1,19.6-1.2,30.3c-1.2-1.2-2.8-2.3-3.6-3.7c-4.6-8.7-9.1-17.5-13.5-26.1c0,9.7,0,19.4,0,29.2
	c-1.3,0-3.8,0-6.2,0C1215.4,721.1,1215.2,693.2,1211.9,688.9z"/>
<path d="M1053.4,697c0,9.8,0,19.5,0,29.3c-1.4,0-3.8,0-6.4,0c3.4-5.1,3.3-33.1,0-37.5c4.9-1.7,7.8,0.1,9.9,4.8
	c3.3,7.2,7.3,14.2,11,21.3c1.9-5.8,0.8-22.9-1.8-26.3c2.7,0,5.2,0,7.3,0c-0.5,2.2-1.5,4.6-1.6,7c-0.2,10.1-0.1,20.3-1.3,31.3
	c-1.2-1.2-2.7-2.1-3.4-3.5C1062.4,714.7,1057.9,705.9,1053.4,697z"/>
<path d="M1120.7,688.5c4.5,0,8.5,0,12.5,0c4.4,0,8.9,0.3,10.7,5.3c1.6,4.4-0.1,8.4-4.7,11.9c1.7,2.2,4,4.1,4.9,6.6
	c2.7,7-1.8,13.6-9.4,14.1c-4.5,0.3-9,0.1-13.6,0.1C1124.4,721.3,1124.3,693.2,1120.7,688.5z M1128,724.4c4.1-0.1,8.8,1.3,10.6-3.3
	c1.2-3.1,1.2-7.3,0-10.3c-1.8-4.4-6.5-3.3-10.5-3.1C1128,713.4,1128,718.7,1128,724.4z M1128,707c4.1-1.9,8.2-2.6,10.2-5.1
	c1.5-1.8,1.5-7,0-8.5c-2.2-2.3-6.3-2.6-10.3-3.9C1128,695.6,1128,700.2,1128,707z"/>
<path d="M1177.7,726.1c-4.4,1.5-7.2,0.1-8.7-4.4c-0.9-2.7-2.3-5.2-3.3-7.8c-1.4-3.3-3.4-5.3-8.2-3.9c0.5,5.3,0.9,10.8,1.4,16.3
	c-1.7,0-4.8,0-8,0c3.4-4.6,3.5-32.7,0-37.9c4,0,7.8-0.1,11.6,0c4.5,0.1,8.7,0.8,10.5,5.8c1.7,4.8,0,9.7-4.5,13.1
	c-0.5,0.4-1,0.8-1.5,1.1c3.6,5.9,7.1,11.6,10.6,17.3L1177.7,726.1z M1158.1,690.7c0,5.8,0,11.2,0,16.6c8,0.4,10.8-2,10.7-8.9
	C1168.7,692.1,1166,690.2,1158.1,690.7z"/>
<path d="M582.4,635.6c9.9,0,19.6,0,29.4,0c-2.8,5.6,2.2,9,3.3,13.5c0.5,0.1,1,0.2,1.5,0.3c1.6-4.4,3.1-8.9,4.8-13.8
	c0.7,0,2.8,0,4.9,0c-5,9.7-13.9,18.3-7.6,30.7c-2.5,0-5.2,0-7.9,0c5.6-7.6,0.4-21.2-7.3-30c-0.3,2.5-0.6,4.8-0.9,7.9
	c-2.8-2.7-2.2-8.3-8.1-6.2c0.2,9.3-0.8,18.8,0.6,28.4c-1.2,0-3.7,0-6.1,0c3.5-9.3,0.7-19,1.8-28.3c-5.9-2.4-5.5,3.4-8.4,6.2
	C582.4,641,582.4,638.6,582.4,635.6z"/>
<path d="M1293.3,726.3c0.4-6.1,0.9-12.2,1.3-18.6c-4.8,0-8.9,0-13.9,0c1,6.1-1.9,12.5,2.6,18.5c-3.1,0-6.1,0-9.1,0
	c3.2-4.7,3.2-33-0.2-37.5c3.2,0,6.2,0,8,0c-0.5,5.3-1.1,10.6-1.7,16.4c4.9,0,9.1,0,14.2,0c-0.3-5.5-0.7-10.8-1-16.4c1.4,0,4.2,0,6,0
	c-1.3,12.4-1.2,25-0.1,37.6C1297.9,726.3,1294.9,726.3,1293.3,726.3z"/>
<path d="M985.7,726.6c3.6-5,3.6-33.3,0-38.1c8.4,0.5,17.5-2.7,23.1,5.5c5.5,7.9,4.8,17,0.7,25.2
	C1004.5,729.2,994.7,725.9,985.7,726.6z M993.1,690.7c0,11.5,0,22.5,0,33.6c8.9,0.5,12.7-2.2,13.7-10.8c0.5-4.1,0.5-8.3-0.1-12.4
	C1005.7,693.1,1001.6,690.2,993.1,690.7z"/>
<path d="M1142.7,666.3c-1.4,0-3.4,0-4.7,0c2.2-10.3,1.1-20.4,0.8-31c3.7-1.2,6.2,0.8,7.3,6.2c0.9,4.8,2.9,9.4,4.8,15.2
	c2.2-6.2,4.2-11,5.6-16.1c1.2-4.2,3-6.5,7.1-5c-1.4,10.2-1.6,20.4,0.2,30.7c-1.6,0-3.9,0-5.6,0c0-7.5,0-15,0-22.8
	c-2.3,6.4-4.6,12.7-7,19.1c-0.6,0.1-1.2,0.1-1.7,0.2c-2.3-6.9-4.7-13.9-6.8-19.9C1142.7,650.3,1142.7,658.2,1142.7,666.3z"/>
<path d="M801.2,662.6c-2.2-6.8-4.4-13.6-6.7-20.4c-0.1,8.1-2,16.2,0.6,24.2c-1.7,0-3.6,0-4.9,0c1.4-10.3,1.4-20.5,0-30.8
	c4.4-1.6,6.6,0.7,7.7,5.7c1,4.8,2.9,9.4,4.9,15.5c2.2-6.4,4.4-11.3,5.7-16.4c1.2-4.6,3.5-6,7.8-4.7c-2.4,4.4-2.4,26.3,0.3,30.5
	c-2.5,0-4.9,0-6.4,0c0-7.4,0-14.8,0-22.6c-2.4,6.4-4.8,12.8-7.1,19.1C802.5,662.8,801.8,662.7,801.2,662.6z"/>
<path d="M954,688.6c2.3,0,5.3,0,8.1,0c-0.7,1.8-1.9,3.5-1.9,5.2c-0.2,7.8-0.2,15.7,0.1,23.5c0.1,4,1.8,7.2,6.6,7.2
	c4.8,0,6.4-3.3,6.6-7.2c0.3-8,0.3-16,0.1-24c0-1.6-1.4-3.1-2.1-4.7c2.8,0,5.6,0,7.8,0c-0.5,2.6-1.4,5.1-1.5,7.7
	c-0.2,6.2,0.1,12.3-0.1,18.5c-0.3,7.5-3.8,11.4-10.3,11.7c-7.1,0.4-11.2-3-11.5-10.1c-0.3-6.6,0-13.3-0.2-20
	C955.5,693.8,954.6,691.2,954,688.6z"/>
<path d="M1177.7,726.1l0-0.2c1.7-2.1,4.1-3.9,4.9-6.2c3.3-9.1,6.1-18.3,9.2-27.4c0.5-1.4,2-2.5,3-3.7c1,1.2,2.5,2.3,2.9,3.8
	c2.5,8.6,4.7,17.4,7.1,26c0.8,2.8,2.1,5.4,3.2,8.1c-3,0-6.3,0-10.2,0c5.3-4,1.6-8.2,1.2-12.6c-3.8,0-7.2,0-11,0
	c-0.6,4.2-4.2,8.3,1.6,12.9C1184.8,726.4,1181.3,726.3,1177.7,726.1z M1198.5,711.4c-1.5-5.6-2.8-10.7-4.5-17.2
	c-2,6.6-3.6,11.8-5.3,17.2C1192.2,711.4,1195,711.4,1198.5,711.4z"/>
<path d="M1036.4,701.7c0,3.2,0,6.4,0,9.2c-3-1.4-6.2-2.9-10.3-4.7c0,6.9,0,12.3,0,17.9c6.7,1.3,12.6,1.4,12.9-9.4
	c0.5,0.6,1,1.2,1.5,1.9c0,3.1,0,6.2,0,9.6c-7.1,0-14.2,0-21.1,0c3-4.8,3-33-0.4-37.4c7.4,0,14.5,0,21.7,0c0,2.6,0,5,0,8.4
	c-2.4-2.6-3.9-5.4-6.1-6.4c-2.4-1-5.5-0.2-8.5-0.2c0,5.1,0,9.8,0,14.7c4,0.3,8,1.5,9-5.2C1035.5,700.6,1036,701.1,1036.4,701.7z"/>
<path d="M445.4,666.4c-1.8,0-3.8,0-5.2,0c1.5-10.2,1.8-20.4-0.2-30.7c3.6-1.3,5.9,0.5,7.7,4.5c2.5,5.5,5.5,10.8,8.7,16
	c-0.2-6.8,1.7-13.7-1.2-20.5c1.8,0,3.9,0,5.7,0c-3.1,10-0.2,20.4-2.5,31c-6-7.3-9.1-16.4-14.5-24.2
	C444.7,650.4,442.2,658.5,445.4,666.4z"/>
<path d="M1259.7,642.6c0,7.9,0,15.7,0,23.7c-1.2,0-3.2,0-4.6,0c1.9-10.2,1.6-20.3,0.2-30.8c3.2-1.2,5.6,0.4,7.4,4.5
	c2.4,5.6,5.5,10.9,8.3,16.3c0-7,0-13.8,0-20.7c1.2,0,3.1,0,4.8,0c-2.5,10.1-0.2,20.4-1.6,32.1c-1.7-1.9-2.9-2.9-3.6-4.2
	C1266.8,656.5,1263.2,649.4,1259.7,642.6z"/>
<path d="M900.8,725.2c0-2.9,0-5.3,0-8.7c1.3,1.4,2.2,2,2.4,2.7c0.9,3.2,2.7,5.7,6.2,5.1c1.9-0.3,5-2.2,5.1-3.5c0.2-3-0.8-6.2-2-9.1
	c-0.6-1.4-2.8-2.2-4.4-3.1c-6.9-4.3-9-8.7-6.7-14.2c2.1-5,7.2-7,14.5-5.5c1,0.2,1.9,0.5,3,0.9c0.1,1.2,0.2,2.3,0.2,3.5
	c0,1.1-0.2,2.2-0.4,4.5c-1.4-1.7-1.9-2.6-2.6-3.1c-1.8-1.4-3.6-3.5-5.6-3.7c-1.5-0.2-4.3,1.8-4.7,3.3c-0.5,2.3-0.1,5.5,1.2,7.3
	c1.7,2.3,5.1,3.2,7,5.4c2.3,2.6,4.9,5.7,5.4,8.9c1.2,7.5-4.5,11.9-12.8,10.9C904.7,726.2,902.8,725.6,900.8,725.2z"/>
<path d="M539.8,652.4c2.8,4.8,5.5,9.4,8.1,13.8c-3.4,1.2-5.7-0.1-7-3.7c-0.9-2.3-1.8-4.7-3.3-6.7c-1-1.3-2.8-2-4.3-3
	c-0.5,0.3-0.9,0.6-1.4,0.9c0.3,4.2,0.6,8.3,0.9,12.6c-1.3,0-3.6,0-5.5,0c1.6-10.2,1.7-20.4-0.2-30.9c2.5,0,5.4,0,8.4,0
	c3.6,0,7.2,0.5,8.6,4.5c1.5,4.2,0.9,8.2-2.8,11.2C540.8,651.6,540.3,652,539.8,652.4z M532.2,652.8c3.3-1.7,6.7-2.4,7.5-4.2
	c1.1-2.5,1-6.3-0.2-8.7c-0.8-1.7-4.4-2-7.3-3.1C532.2,642.4,532.2,646.6,532.2,652.8z"/>
<path d="M941,726.4c-3,0-6.3,0-9,0c0.6-2.6,1.7-5.4,1.7-8.2c0.2-9.1,0.1-18.2,0.1-27.1c-6.9-2.6-6.7,3.8-10.3,6.5
	c-0.1-2.8-0.3-5.7-0.4-8.8c8.8,0,17.1,0,25.6,0c0,2.9,0,5.8,0,10.4c-3.6-3.8-3.3-10.9-10.1-8c0,9.9-0.1,20,0.1,30.2
	C938.8,723,940.2,724.6,941,726.4z"/>
<path d="M1097.5,726.5c-3.7,0-6.9,0-9.5,0c0.6-2.9,1.7-5.8,1.7-8.7c0.2-9,0.1-17.9,0.1-26.6c-6.9-2.9-6.6,4.1-10.2,7.9
	c0-4.4,0-7.2,0-10.3c8.3,0,16.7,0,25.1,0c0,3,0,5.9,0,10.3c-3.6-3.6-3.2-10.8-9.8-8.1C1093.1,704.5,1094.3,722.8,1097.5,726.5z"/>
<path d="M928.6,651.7c0.4,5.1,0.8,9.8,1.1,14.5c-1.3,0-3.7,0-5.6,0c2-10.2,1.6-20.3,0.3-30.6c1.4,0,3.8,0,5.3,0
	c-0.4,4.3-0.8,8.7-1.2,13.5c4,0,7.2,0,11.3,0c-0.2-4.5-0.5-9-0.7-13.6c1.3,0,3.6,0,5.9,0c-2.3,4.4-2,26.9,0.4,30.8c-2.6,0-5,0-6.4,0
	c0.3-4.8,0.6-9.6,0.9-14.6C936.1,651.7,932.8,651.7,928.6,651.7z"/>
<path d="M836.8,650.2c4.7,2.7,6,6.5,4.6,10.9c-1.4,4.6-5.4,5.4-9.6,5.4c-3,0-6,0-8.6,0c2.2-10.4,1.3-20.5,0.6-31c1.9,0,5,0,8.1,0
	c3.7,0,7.6,0,9.2,4.2C842.6,644.1,840.8,647.5,836.8,650.2z M828.1,665.7c3.5-1.5,7.1-2.1,8.7-4.2c1.2-1.6,1-6-0.4-7.7
	c-1.6-1.9-5.2-2-8.3-3C828.1,656.2,828.1,660.1,828.1,665.7z M828,650.9c3.5-1.7,6.8-2.4,8.5-4.4c1.2-1.4,1.1-5.5-0.1-6.7
	c-1.9-1.8-5.2-2.1-8.4-3.1C828,641.7,828,645.3,828,650.9z"/>
<path d="M1267.4,690.1c0,2.4,0,4.8,0,7.2c-0.3,0.2-0.7,0.3-1,0.5c-0.7-1.2-1.5-2.3-2.2-3.6c-2.4-4.5-6.8-5.1-10-1.2
	c-1.1,1.4-2.3,3.2-2.4,4.8c-0.2,6.7-0.6,13.5,0.2,20.2c0.3,2.4,3.5,5.3,5.9,6.2c3.5,1.3,5.6-1.7,6.8-5c0.3-0.8,1.1-1.3,2.5-2.8
	c0,3.5,0,6,0,8.7c-1.8,0.4-3.7,0.9-5.7,1.2c-8.9,1.1-13.7-2.2-15.3-11c-0.8-4.2-0.9-8.7-0.3-12.9
	C1247.5,690.4,1255.8,685.8,1267.4,690.1z"/>
<path d="M637.6,650.4c0.8-2.7,1.4-6.5,3-9.9c1.7-3.8,5.3-5.4,9.5-5c4,0.4,6.8,2.7,8.1,6.4c2.1,6,2.1,12.1-0.3,18
	c-1.8,4.5-5.2,6.8-10.1,6.5c-4.8-0.3-7.5-3.2-8.8-7.6C638.3,656.5,638.2,654,637.6,650.4z M641.6,650.5c0.7,3.3,0.8,6.7,2.1,9.6
	c0.9,1.9,3.4,3.9,5.3,4c1.6,0.1,4.1-2.2,4.8-3.9c2.5-6.2,2.3-12.7-0.3-18.9c-0.7-1.6-3.1-3.6-4.7-3.6c-1.8,0.1-4.3,1.8-5.2,3.5
	C642.5,644.1,642.3,647.3,641.6,650.5z"/>
<path d="M715.6,650.4c0.8-2.7,1.4-6.5,3-9.9c1.7-3.8,5.3-5.4,9.5-5c4,0.4,6.8,2.7,8.1,6.4c2.1,6,2.1,12.1-0.3,18
	c-1.8,4.5-5.2,6.8-10.1,6.5c-4.8-0.3-7.5-3.2-8.8-7.6C716.3,656.5,716.2,654,715.6,650.4z M719.6,650.5c0.7,3.3,0.8,6.8,2.1,9.7
	c0.9,1.9,3.4,3.9,5.3,4c1.6,0.1,4.1-2.1,4.9-3.9c2.5-6.2,2.4-12.7-0.3-18.8c-0.7-1.7-3.3-3.5-5.1-3.6c-1.5-0.1-3.9,1.9-4.7,3.5
	C720.6,644.1,720.3,647.3,719.6,650.5z"/>
<path d="M785,651.5c-0.7,2.7-1.3,6.4-2.7,9.7c-1.7,3.8-5.1,5.6-9.3,5.3c-4.1-0.2-6.9-2.3-8.3-6.1c-2.3-6.2-2.3-12.4,0.1-18.5
	c1.8-4.5,5.2-6.8,10.1-6.5c4.8,0.4,7.5,3.3,8.7,7.7C784.3,645.6,784.4,648.1,785,651.5z M766.6,650.4c0.7,3.3,0.8,6.8,2.1,9.7
	c0.9,1.9,3.4,3.9,5.3,4.1c1.6,0.1,4.2-2.1,4.9-3.9c2.5-6.2,2.4-12.7-0.3-18.8c-0.7-1.7-3.3-3.5-5.1-3.6c-1.5-0.1-4,1.9-4.7,3.5
	C767.6,644.1,767.3,647.3,766.6,650.4z"/>
<path d="M845.6,650.5c0.7-2.6,1.2-6.1,2.5-9.3c1.7-4,5.1-6,9.6-5.8c4.5,0.3,8,2.9,8.6,7.1c0.7,5.6,0.6,11.5-0.4,17.1
	c-0.8,4.7-4.8,7-9.7,6.9c-5.1-0.1-7.9-3.2-9.2-7.7C846.3,656.4,846.2,653.9,845.6,650.5z M864,651.4c-0.8-3.5-1.2-7-2.5-10.2
	c-0.7-1.6-3.1-3.4-4.7-3.4c-1.7,0-4.2,1.7-4.9,3.2c-2.9,6.7-2.7,13.6,0.2,20.2c0.6,1.5,3.1,3.1,4.6,3c1.7-0.1,4.1-1.7,4.8-3.3
	C862.9,658,863.3,654.7,864,651.4z"/>
<path d="M949.6,650.3c0.7-2.6,1.4-6.3,2.8-9.5c1.7-3.9,5.1-5.6,9.4-5.2c4,0.3,6.8,2.4,8.2,6.2c2.2,6,2.2,12.1-0.1,18
	c-1.7,4.5-5.1,6.9-10,6.7c-5.1-0.2-7.8-3.3-9.1-7.8C950.3,656.3,950.1,653.8,949.6,650.3z M953.6,650.5c0.7,3.2,0.9,6.8,2.2,9.9
	c0.7,1.7,3.3,3.7,5,3.7c1.7,0,4.2-2.1,5-3.8c2.6-6.2,2.4-12.7-0.2-18.8c-0.7-1.7-3.3-3.7-5-3.7c-1.7,0-4.2,2-5,3.8
	C954.4,644.2,954.3,647.3,953.6,650.5z"/>
<path d="M975.6,650.4c0.7-2.6,1.2-6.1,2.5-9.2c1.7-4,5.1-6,9.6-5.7c4.3,0.3,7.8,2.6,8.3,6.7c0.7,5.8,0.7,11.8-0.3,17.5
	c-0.8,4.7-4.8,6.9-9.8,6.8c-5.1-0.1-7.8-3.3-9.1-7.8C976.3,656.3,976.1,653.8,975.6,650.4z M994,651.4c-0.8-3.5-1-6.9-2.3-9.9
	c-0.8-1.7-3.2-3.6-5-3.8c-1.5-0.1-4.1,1.7-4.8,3.3c-2.8,6.7-2.7,13.7,0.3,20.2c2,4.3,7.3,4.3,9.3-0.1
	C992.9,658.2,993.2,654.7,994,651.4z"/>
<path d="M1032.6,650.4c0.7-2.6,1.2-6.1,2.5-9.2c1.7-4,5.2-6,9.6-5.7c4.3,0.3,7.8,2.7,8.3,6.7c0.7,5.8,0.7,11.8-0.3,17.5
	c-0.8,4.7-4.9,6.9-9.8,6.8c-5.1-0.2-7.8-3.3-9.1-7.8C1033.3,656.3,1033.1,653.8,1032.6,650.4z M1051,651.4c-0.7-3.4-1-6.9-2.3-9.8
	c-0.8-1.8-3.2-3.6-5-3.8c-1.5-0.2-4.1,1.7-4.8,3.3c-2.8,6.7-2.6,13.6,0.3,20.2c0.6,1.5,3.1,3,4.6,2.9c1.7-0.1,4.1-1.7,4.8-3.3
	C1049.9,658,1050.3,654.6,1051,651.4z"/>
<path d="M1133,651.6c-0.7,2.7-1.3,6.3-2.7,9.6c-1.7,3.8-5.2,5.5-9.4,5.3c-4.1-0.2-7.6-2.2-8.1-6.1c-0.8-5.8-1.1-11.8-0.2-17.5
	c0.9-5.3,5.6-7.9,10.4-7.3c5.2,0.6,7.9,3.9,8.9,8.7C1132.3,646.3,1132.5,648.5,1133,651.6z M1129,651.1c-0.8-3.4-1.1-6.8-2.4-9.7
	c-0.7-1.6-3.1-3.7-4.6-3.6c-1.8,0.1-4.5,1.8-5.2,3.5c-2.7,6.5-2.5,13.3,0.3,19.8c0.7,1.6,3.3,3.2,4.9,3.1c1.6-0.1,4-1.9,4.7-3.5
	C1128,657.7,1128.3,654.3,1129,651.1z"/>
<path d="M509.2,650.3c3.1-1.2,5.6-2.2,8.2-3.2c0,2.1,0,4.6,0,6.7c-2.4-0.9-5-1.9-8.2-3.1c0,5.1,0,9.1,0,13.3
	c5.2,1.1,9.9,1.3,10.8-6.8c0.4,0.4,0.7,0.8,1.1,1.3c0,2.4,0,4.9,0,7.6c-5.9,0-11.6,0-16.8,0c1.8-10.1,1.7-20.2,0-30.5
	c5,0,10.8,0,16.8,0c0,2.3,0,4.5,0,7.5c-2-2.3-3.1-4.7-4.8-5.4c-2-0.8-4.5-0.2-7-0.2C509.2,641.5,509.2,645.1,509.2,650.3z"/>
<path d="M1207.1,635.6c2,0,4.1,0,5.7,0c-0.4,2.4-1,4.7-1.1,7c-0.2,5.3,0.2,10.7-0.3,15.9c-0.5,5.5-4.1,8.2-9.5,8
	c-5.2-0.2-8-3.1-8.2-8.7c-0.2-5.3,0-10.6-0.1-16c-0.1-2-0.8-4-1.2-6.2c2,0,4.4,0,6.1,0c-0.3,2.9-0.8,5.9-0.9,8.8
	c-0.1,5-0.4,10,0.3,14.9c0.2,1.8,2.7,4.5,4.4,4.7c1.7,0.2,5.1-2,5.3-3.6C1208.9,652.3,1209.5,643.9,1207.1,635.6z"/>
<path d="M429.2,635.6c0.9,0,3.1,0,4.6,0c-0.4,2.4-1,4.7-1,7c-0.2,5,0.1,10-0.2,15c-0.4,6.1-3.9,9.2-9.7,8.9c-5.3-0.2-8-3.2-8.2-9.2
	c-0.1-5,0.1-10-0.1-15c-0.1-2.2-0.7-4.4-1.1-6.7c1.9,0,4.3,0,6.5,0c-0.5,1.8-1.3,3.6-1.3,5.4c-0.2,5.8-0.1,11.6,0,17.5
	c0,3.4,1.4,5.9,5.2,5.9c3.6,0.1,5.2-2.3,5.3-5.4C429.3,651.4,429.2,643.7,429.2,635.6z"/>
<path d="M1295.4,652.6c1.3,0,3.6,0,5.1,0c-0.4,4.5-0.8,8.8-1.2,13.2c-6.3-0.2-14.2,3.6-17.1-5.9c-2.2-7.4-2.6-15,2.9-21.2
	c3.9-4.5,9.1-3.7,14.2-2c0,2.1,0,3.9,0,6.1c-0.8-0.4-1.5-0.5-1.6-0.8c-1.3-2.7-3.3-5.6-6.3-4.1c-2.4,1.2-4.8,4.2-5.4,6.8
	c-1,3.7-1,8-0.2,11.8c0.6,2.9,3,5.5,5,7.8c0.5,0.5,4.3-0.7,4.5-1.5C1295.8,659.5,1295.4,656.2,1295.4,652.6z"/>
<path d="M1170.5,666.5c1.2-10.5,1.7-20.6-0.4-31c2.8,0,6.1-0.1,9.4,0c5.2,0.2,7.9,2.6,8.3,7.3c0.4,5.8-2.3,9.8-7.4,10.6
	c-1.6,0.2-3.3,0.2-5.8,0.3c0.5,4.4,1.1,8.6,1.6,12.8c-0.2,0-1.5,0-2.8,0C1172.2,666.5,1171,666.5,1170.5,666.5z M1175.1,637.7
	c0,4.7,0,9.1,0,13.5c6.5,0.5,8.6-1.2,8.7-6.7C1183.9,639,1182,637.4,1175.1,637.7z"/>
<path d="M488.9,658.7c1.8-7.6,7.5-14.6,4.8-23c1.8,0,4.2,0,6,0c-3,9-6,18.1-9.2,27.2c-0.5,1.4-1.7,2.5-2.6,3.7
	c-0.8-1.3-1.8-2.5-2.2-4c-1.8-6.4-3.4-12.9-5.1-19.3c-0.7-2.5-1.8-4.9-2.7-7.5c2.2,0,4.8,0,7.1,0C482,644,487.5,650.9,488.9,658.7z"
	/>
<path d="M587.6,598.2c-5.4,0-9.4-4.1-9.3-9.5c0.1-5.3,4-9.1,9.2-9.1c5.4,0,9.4,4,9.3,9.5C596.7,594.3,592.8,598.2,587.6,598.2z
	 M590.6,593.4c5.2-0.9,3.5-4.8,2.8-7.5c-1-3.7-4.7-4.6-8.9-2.4c1.9,0.3,3.7,0.1,5,0.9c1,0.6,1.8,2.4,1.9,3.7
	c0.2,1.8-0.4,3.6-0.6,5.4c-1.4-1.1-2.8-2.1-3.7-2.8c-1.3,1.2-2.5,2.3-3.8,3.5C585.5,595,588.2,598.1,590.6,593.4z M583.9,584.2
	c-0.2-0.1-0.4-0.3-0.6-0.4c-0.1,0.2-0.3,0.5-0.3,0.7c0,0.1,0.3,0.3,0.5,0.4C583.6,584.8,583.7,584.5,583.9,584.2z"/>
<path d="M895.7,636.6c0,2.1,0,4,0,7.1c-1.2-1.8-1.8-2.5-2.2-3.2c-1.6-3.1-4.2-4-7-2c-2.8,2-2.5,5-0.6,7.5c1.1,1.4,2.8,2.3,4.3,3.3
	c5.8,3.6,7.7,7.7,5.7,12.7c-1.7,4.2-5.9,5.6-12.4,4.1c-0.8-0.2-1.6-0.4-2.5-0.6c0-1.9,0-3.8,0-6.7c1.2,1.4,2,1.9,2.4,2.7
	c1.7,3.4,4.3,4,7.5,2.4c2.5-1.3,2.9-5.8,0.8-8.4c-0.9-1.1-2.2-2-3.4-2.8c-6.6-4.2-8.5-8-6.4-12.7
	C883.8,635.7,888.7,634.5,895.7,636.6z"/>
<path d="M551.5,659.6c0.3,0.5,0.7,1.1,1,1.6c1.6,3.4,4.3,4,7.4,2.5c2.5-1.3,3-5.8,0.9-8.4c-1-1.2-2.5-2.2-3.9-3
	c-6.1-3.8-8.1-7.8-6-12.4c2-4.4,7.5-5.6,13.9-3.2c0,1.9,0,3.8,0,6.9c-1.2-1.7-1.8-2.4-2.2-3.1c-1.6-3.1-4.1-4.1-6.9-2.1
	c-2.8,2-2.6,5-0.6,7.5c1.1,1.4,2.8,2.3,4.3,3.3c5.9,3.7,7.7,7.7,5.7,12.7c-1.7,4.3-5.9,5.6-12.4,4.1c-0.8-0.2-1.6-0.4-2.3-0.6
	c0-2,0-3.9,0-5.8C550.7,659.6,551.1,659.6,551.5,659.6z"/>
<path d="M681.5,635.7c0,2.4,0,4.5,0,6.6c-2.3-5.6-6.6-5.4-11.4-4.5c0,3.8,0,7.4,0,12.5c3.1-1.4,5.5-2.6,8-3.7c0,2.2,0,5.4,0,8.3
	c-2.3-1.3-4.7-2.7-7.1-4.1c-0.5,0.4-1,0.8-1.5,1.2c0.6,4.8,1.1,9.6,1.7,14.4c-1.4,0-3.9,0-5.8,0c1.5-10.3,1.4-20.5,0-30.7
	C670.3,635.7,675.9,635.7,681.5,635.7z"/>
<path d="M1065.9,666.4c-1.2,0-3.7,0-5.5,0c1.6-10.2,1.1-20.3,0.3-30.6c4.5,0,10.2,0,16,0c0,2.2,0,4.3,0,6.4c-2.8-4.5-6.5-6-11.6-4.1
	c0,3.5,0,7.1,0,12.3c3.1-1.5,5.6-2.6,8-3.8c0,2.3,0,5.5,0,8.3c-2.3-1.3-4.7-2.7-7.2-4.1c-0.5,0.4-0.9,0.8-1.4,1.2
	C1065,656.7,1065.5,661.4,1065.9,666.4z"/>
<path d="M1230.2,666.4c-1.3,0-3.8,0-6,0c3.3-9.4,0.7-19,1.7-28.3c-5.9-2.4-5.5,3.3-8.4,6.3c0-3.4,0-5.8,0-8.6c6.5,0,13.4,0,20.3,0
	c0,2.6,0,5.1,0,8.2c-3-2.3-2.4-8.3-8.3-6C1229.8,647.3,1228.7,656.7,1230.2,666.4z"/>
<path d="M711.7,642.5c-0.6-0.1-0.8,0-0.9-0.1c-2-2.1-3.3-6.6-7-4.4c-2.5,1.5-4.7,5.2-5.2,8.2c-0.7,4.4-0.1,9.2,0.8,13.7
	c0.4,1.8,3.1,4.1,5,4.3c1.4,0.2,3.4-2.3,5-3.7c0.6-0.5,1-1.4,2.2-3c0,3.4,0,5.6,0,7.8c-11.3,3.7-17-0.1-17.7-11.7
	c-0.1-2.5,0.1-5,0.5-7.4c1.7-9.4,8.2-12.8,17.1-9.2C711.7,638.7,711.7,640.6,711.7,642.5z"/>
<path d="M1106.7,657.4c0,3.3,0,5.5,0,7.7c-10.7,3.9-16.6,0.3-17.6-11c-0.2-2.5-0.1-5,0.3-7.4c1.6-9.8,7.8-13.3,17.3-10
	c0,1.9,0,3.7,0,5.9c-0.8-0.3-1.3-0.4-1.7-0.7c-1.9-1.4-4.1-4.3-5.7-4c-2,0.3-4.8,3.1-5.1,5.1c-0.8,5.3-0.8,10.8-0.1,16.2
	c0.2,1.9,3.1,4.5,5.1,4.9c1.4,0.3,3.5-2.5,5.2-4C1105.2,659.7,1105.5,659,1106.7,657.4z"/>
<path d="M917.8,642.6c-0.4-0.5-0.6-1.1-1.1-1.4c-1.6-1.2-3.3-3.5-4.7-3.3c-1.9,0.2-4.2,2.1-5.1,3.9c-2.8,6-2.6,12.3-0.3,18.4
	c0.7,1.8,3,4,4.8,4.1c1.6,0.1,3.5-2.2,5.1-3.5c0.6-0.5,1-1.5,2.2-3.5c0,3.6,0,5.7,0,8c-10.6,4-16.6,0.4-17.5-10.9
	c-0.2-2.5-0.1-5,0.3-7.4c1.6-9.8,7.7-13.3,17.3-10c0,1.9,0,3.7,0,5.6C918.4,642.4,918.1,642.5,917.8,642.6z"/>
<path d="M1008.8,664.3c6.4,0.4,6.4,0.4,10.5-7.7c0,3.8,0,6.6,0,9.6c-5.4,0-11,0-16.1,0c2.1-10,1.1-20.1,0.7-30.4c1,0,3.4,0,5,0
	C1008.8,645.1,1008.8,654.5,1008.8,664.3z"/>
<path d="M743.5,666.2c1.3-10.2,1.3-20.1,0-30.4c1.3,0,3.7,0,5.3,0c0,9.3,0,18.7,0,28.2c5.5,0.5,6,3.3,10.4-7.7c0,4.2,0,6.9,0,10
	C754,666.2,748.4,666.2,743.5,666.2z"/>
<path d="M1242.5,635.6c1.5,0,3.8,0,5.6,0c-1.6,10.2-1.6,20.3-0.1,30.6c-1.5,0-3.9,0-5.9,0C1244.2,656.1,1243.7,645.9,1242.5,635.6z"
	/>
<path d="M578.3,666.4c-2.9,0-5.2,0-6.8,0c1.3-10.2,1.7-20.4-0.3-30.7c1.8,0,4.2,0,6.8,0C575.2,640.2,575.3,661.9,578.3,666.4z"/>
<path d="M466.4,666.2c2.8-4.4,2.8-25.9,0-30.5c2.6,0,5,0,6.9,0c-2.1,10.1-1.4,20.2-0.4,30.5C471.6,666.2,469.2,666.2,466.4,666.2z"
	/>
<path d="M1308.6,325.6c-0.6-0.1-1.1-0.2-1.7-0.4c0-0.2,0-0.4,0.1-0.6c0.7,0.1,1.5,0.1,2.2,0.2C1309,325.1,1308.8,325.4,1308.6,325.6
	z"/>
<path d="M590.7,593.5c0.3-1.8,0.8-3.7,0.6-5.4c-0.1-1.3-0.9-3.1-1.9-3.7c-1.2-0.8-3.1-0.6-5-0.9c4.2-2.2,7.9-1.3,8.9,2.4
	c0.8,2.7,2.4,6.6-2.8,7.5C590.6,593.4,590.7,593.5,590.7,593.5z"/>
<path d="M590.6,593.4c-2.4,4.7-5.1,1.7-7.4,0.8c1.4-1.3,2.6-2.4,3.8-3.5c0.9,0.7,2.3,1.8,3.7,2.8
	C590.7,593.5,590.6,593.4,590.6,593.4z"/>
<path d="M583.9,584.2c-0.1,0.3-0.3,0.5-0.4,0.8c-0.2-0.1-0.5-0.3-0.5-0.4c0-0.2,0.2-0.5,0.3-0.7C583.5,584,583.7,584.1,583.9,584.2z
	"/>
<path d="M543.9,570.3c-2-0.9-3.4-1.3-4.7-2.1c-3.3-2-6.7-3.9-9.6-6.2c-27.4-21.9-53.1-45.5-73.8-74.1c-5.9-8.1-6.4-10.8,0.1-18.6
	c12.2-14.5,24.4-29.1,37.9-42.4c13-12.8,27.7-23.9,41.5-35.9c4.7-4.1,9.6-3.9,14.8-1.2c1.9,1,3.7,2.2,5.4,3.5
	c28.3,21.8,53.2,46.9,74.2,75.8c6.6,9,7.3,10.5,0.3,19.3c-11.1,13.9-22.5,27.7-35.2,40.2c-13.3,13.2-28.2,24.9-42.6,37
	C549.9,567.7,546.7,568.8,543.9,570.3z M525.3,465.9c-3.6-2.3-7.1-4.8-10.8-7c-0.9-0.5-2.3-0.7-3.3-0.4c-8.5,2.3-16.5,5.6-22.5,12.2
	c-4.8,5.2-4.4,10.9,1.2,15.1c3.5,2.7,7.6,4.9,11.8,6.4c25.2,8.8,50.7,8.7,76.1,1.1c4.1-1.2,8-3.4,11.4-6c6.3-4.8,6.2-10.8,0.1-15.9
	c-2-1.7-4.2-3-6.4-4.5c1-0.7,1.9-1.4,2.9-2.1c-7.6-1.8-14.8-3.6-22.6-5.4c0.7,2.3,1.2,4,1.9,5.6c0.6,1.7,1.3,3.3,2,4.9
	c1.4-0.3,2.4-0.4,3.4-0.7c5.7-1.2,13.2,2.4,14.9,7.2c1.5,4.1-1.2,7.9-7.9,11c-0.2,0.1-0.3,0.1-0.5,0.2c-21.5,7.5-43.1,8-64.6,0.1
	c-3.1-1.1-7.1-4.9-7.3-7.6c-0.2-2.8,3.4-6.7,6.3-8.5C515.5,469.1,520.5,467.8,525.3,465.9z M547.1,450.5c3.8-0.2,7.1-0.4,10.7-0.6
	c-5.2-14.1-10.1-27.7-15.3-42c-5,14.5-9.7,28.1-14.5,42.1c3.5,0.2,6.4,0.4,9.6,0.6c-0.6,13.4-1.1,26.4-1.7,39.6c4.6,0,8.5,0,12.8,0
	C548.2,476.9,547.7,464,547.1,450.5z M535.6,501.5c-0.6,13.3-1.2,26.6-1.8,40.3c5.8,0,11.3,0,17.3,0c-0.6-13.7-1.2-26.9-1.8-40.3
	C544.5,501.5,540.3,501.5,535.6,501.5z"/>
</svg>
